<svg xmlns="http://www.w3.org/2000/svg" xmlns:xlink="http://www.w3.org/1999/xlink" version="1.1" x="0px" y="0px" viewBox="0 0 491.5 614.375" style="enable-background:new 0 0 491.5 491.5;" xml:space="preserve"><style type="text/css">
	.st0{fill-rule:evenodd;clip-rule:evenodd;}
</style><g><path d="M119,170.7l122.6-77.4l0,0c2.8-1.7,6.2-1.5,8.7,0.3L373,171l-4.1,6.5l4.1-6.5c2.3,1.5,3.6,4,3.6,6.6v168   c0,4.2-3.4,7.7-7.7,7.7H122.6c-4.2,0-7.7-3.4-7.7-7.7V177.5C114.9,174.6,116.6,172,119,170.7L119,170.7z M245.8,108.9l-115.5,72.8   v156.2h230.9V181.7L245.8,108.9L245.8,108.9z"/><path d="M96,361c-4.2,0-7.7,3.4-7.7,7.7c0,4.2,3.4,7.7,7.7,7.7h299.5c4.2,0,7.7-3.4,7.7-7.7c0-4.2-3.4-7.7-7.7-7.7   C395.5,361,96,361,96,361z"/><path d="M133.2,361h225.1h7.7v7.7c0,14.8-6,28.2-15.8,38c-9.7,9.7-23.2,15.8-38,15.8H179.3c-14.8,0-28.2-6-38-15.8   c-9.7-9.7-15.8-23.2-15.8-38V361H133.2L133.2,361z M349.8,376.3H141.7c1.5,7.5,5.3,14.2,10.5,19.4c7,7,16.6,11.3,27.1,11.3h132.9   c10.6,0,20.2-4.3,27.1-11.3C344.6,390.5,348.3,383.8,349.8,376.3z"/><path d="M245.8,53.8c6.4,0,12.1,2.6,16.3,6.7s6.7,9.9,6.7,16.3c0,6.4-2.6,12.1-6.7,16.3c-4.2,4.2-9.9,6.7-16.3,6.7   c-6.4,0-12.1-2.6-16.3-6.7c-4.2-4.2-6.7-9.9-6.7-16.3c0-6.4,2.6-12.1,6.7-16.3C233.6,56.3,239.4,53.8,245.8,53.8z M251.2,71.4   c-1.4-1.4-3.3-2.2-5.4-2.2s-4,0.9-5.4,2.2c-1.4,1.4-2.2,3.3-2.2,5.4c0,2.1,0.9,4,2.2,5.4c1.4,1.4,3.3,2.2,5.4,2.2s4-0.9,5.4-2.2   c1.4-1.4,2.2-3.3,2.2-5.4C253.4,74.7,252.6,72.8,251.2,71.4z"/><path d="M280.1,232.1c1.6-10,4.9-15.7,9.5-18.5c3-1.8,6.2-2.3,9.7-1.9c-3.9-11.4-9.9-19.1-16.8-23.5c-5.9-3.7-12.5-5.1-19.4-4.3   c-7,0.8-14.3,3.8-21.1,8.9c-14,10.4-26.2,29.3-31.3,55.2l0,0.1l0,0c-2,8.2-4.3,17.2-8,25.7c-1.7,3.9-3.6,7.6-6,11   c11.6-4.1,21.9-9.6,30.8-16.3c12.6-9.5,22.3-21.2,28.8-34.3l7.4-15.1l-0.2,16.8c-0.1,8.8-1.2,18.3-6.8,27.9   c-4.8,8.3-12.9,16.7-26.5,24.5c3.3,1.5,6.7,2.2,10,2.1c4.6-0.2,9.2-1.8,13.5-4.5c4.5-2.8,8.7-6.8,12.4-11.5   c8.7-11.2,14.3-26.7,13.8-41.7l0-0.3L280.1,232.1L280.1,232.1z M293.6,220.2c-2.6,1.6-4.7,5.5-5.9,12.7   c0.5,16.7-5.8,33.8-15.4,46.3c-4.2,5.5-9.2,10.1-14.4,13.4c-5.4,3.4-11.3,5.4-17.3,5.6c-6.8,0.2-13.7-1.9-20.1-6.9l-4.8-3.7   l5.4-2.8c15.7-8,24.4-16.4,29.2-24.7c1.2-2,2.1-4,2.8-6c-5.8,7.6-12.8,14.6-20.9,20.6c-12.9,9.7-28.6,17.1-46.9,21.5l-18.8,4.5   l15.7-11.3c6-4.4,10.3-11.1,13.6-18.6c3.4-7.8,5.6-16.5,7.5-24.4h0c5.5-27.8,18.8-48.2,34.3-59.7c7.9-5.9,16.5-9.4,24.9-10.4   c8.6-1,16.9,0.8,24.3,5.4c9.8,6.2,17.8,17.5,22.1,34.4l1.8,7.1l-6.9-2.6C299.5,219.2,296,218.7,293.6,220.2L293.6,220.2z"/><path d="M226.5,288.3c0-2.1-1.7-3.8-3.8-3.8s-3.8,1.7-3.8,3.8v42c0,2.1,1.7,3.8,3.8,3.8h12.7c2.1,0,3.8-1.7,3.8-3.8   c0-2.1-1.7-3.8-3.8-3.8h-8.8L226.5,288.3L226.5,288.3z"/><path d="M247.1,294.9c0-2.1-1.7-3.8-3.8-3.8c-2.1,0-3.8,1.7-3.8,3.8v31.6c0,2.1,1.7,3.8,3.8,3.8H256c2.1,0,3.8-1.7,3.8-3.8   c0-2.1-1.7-3.8-3.8-3.8h-8.8L247.1,294.9L247.1,294.9z"/><circle class="st0" cx="276.7" cy="200.2" r="5.7"/></g><text x="0" y="506.5" fill="#000000" font-size="5px" font-weight="bold" font-family="'Helvetica Neue', Helvetica, Arial-Unicode, Arial, Sans-serif">Created by @w@n  !cons</text><text x="0" y="511.5" fill="#000000" font-size="5px" font-weight="bold" font-family="'Helvetica Neue', Helvetica, Arial-Unicode, Arial, Sans-serif">from the Noun Project</text></svg>